<svg xmlns="http://www.w3.org/2000/svg" xmlns:xlink="http://www.w3.org/1999/xlink" width="24" height="24" viewBox="0 0 24 24"><defs><clipPath id="a"><rect width="24" height="24"/></clipPath></defs><g clip-path="url(#a)"><path d="M4.988,11.427A1.017,1.017,0,0,1,6.01,10.409l1.694.006a1.019,1.019,0,0,1,1.018,1.019v6.408c.191-.057.436-.117.7-.18a.849.849,0,0,0,.654-.826V8.887A1.019,1.019,0,0,1,11.1,7.868h1.7a1.019,1.019,0,0,1,1.019,1.019v7.378s.425-.172.839-.347a.851.851,0,0,0,.519-.783v-8.8A1.019,1.019,0,0,1,16.191,5.32h1.7a1.019,1.019,0,0,1,1.019,1.019v7.243a19.911,19.911,0,0,0,4.147-3.893,1.711,1.711,0,0,0,.26-1.6A11.99,11.99,0,1,0,1.593,18a1.516,1.516,0,0,0,1.447.75c.321-.028.721-.068,1.2-.124a.849.849,0,0,0,.752-.842v-6.36" transform="translate(0 0)"/><path d="M5.363,22.636a11.994,11.994,0,0,0,19.049-9.7c0-.276-.013-.55-.031-.821C20,18.649,11.908,21.706,5.363,22.636" transform="translate(-0.413 -0.932)"/></g></svg>